<?xml version="1.0" encoding="UTF-8" standalone="no"?>
<!DOCTYPE svg PUBLIC "-//W3C//DTD SVG 20010904//EN"
              "http://www.w3.org/TR/2001/REC-SVG-20010904/DTD/svg10.dtd">

<svg xmlns="http://www.w3.org/2000/svg"
     width="180.6mm" height="180.6mm"
     viewBox="0 0 512 512">
  <path id="ring copy"
        fill="none" stroke="black" stroke-width="1"
        d="M 240.00,0.21
           C 240.00,0.21 264.00,0.21 264.00,0.21
             264.00,0.21 276.00,0.91 276.00,0.91
             300.87,2.65 324.65,8.22 348.00,16.95
             373.01,26.30 398.45,41.27 419.00,58.25
             439.59,75.27 457.63,95.40 471.95,118.00
             534.76,217.17 522.88,344.95 443.09,431.00
             423.70,451.91 400.58,469.96 375.00,482.75
             330.78,504.88 295.27,512.57 246.00,512.00
             246.00,512.00 236.00,511.09 236.00,511.09
             215.63,509.66 195.41,505.80 176.00,499.33
             139.83,487.29 108.97,469.02 81.00,443.09
             81.00,443.09 74.17,436.91 74.17,436.91
             31.81,393.29 5.16,336.79 0.91,276.00
             0.91,276.00 0.00,264.00 0.00,264.00
             0.00,264.00 0.00,248.00 0.00,248.00
             0.00,248.00 0.91,236.00 0.91,236.00
             2.95,206.83 10.08,177.63 22.31,151.00
             51.84,86.67 103.14,38.48 170.00,14.69
             186.39,8.86 203.75,4.61 221.00,2.28
             221.00,2.28 240.00,0.21 240.00,0.21 Z
           M 242.00,29.28
           C 242.00,29.28 231.00,30.28 231.00,30.28
             218.22,31.81 205.36,34.04 193.00,37.72
             132.06,55.88 81.40,96.83 52.81,154.00
             6.58,246.46 28.92,359.80 107.00,427.71
             129.44,447.24 155.83,461.94 184.00,471.33
             201.34,477.11 218.78,480.76 237.00,482.09
             237.00,482.09 247.00,483.00 247.00,483.00
             286.55,483.46 322.31,477.04 358.00,459.19
             382.58,446.90 403.12,430.79 422.04,411.00
             501.64,327.75 502.89,193.43 427.71,107.00
             399.89,75.01 366.02,53.34 326.00,40.00
             301.81,31.94 267.42,26.92 242.00,29.28 Z
           M 83.53,154.27
           C 83.53,154.27 285.89,154.26 285.89,154.26
             285.89,154.26 330.94,214.78 330.94,214.78
             330.94,214.78 375.99,154.26 375.99,154.26
             375.99,154.26 436.76,154.26 436.76,154.26
             436.76,154.26 361.31,255.61 361.31,255.61
             361.31,255.61 436.76,356.97 436.76,356.97
             436.76,356.97 375.99,356.97 375.99,356.97
             375.99,356.97 330.94,296.44 330.94,296.44
             330.94,296.44 285.89,356.97 285.89,356.97
             285.89,356.97 225.02,356.99 225.02,356.99
             225.02,356.99 300.56,255.62 300.56,255.62
             300.56,255.62 255.48,195.06 255.48,195.06
             255.48,195.06 113.92,194.99 113.92,194.99
             113.92,194.99 83.53,154.27 83.53,154.27 Z
           M 134.97,357.03
           C 134.97,357.03 74.24,356.95 74.24,356.95
             74.24,356.95 154.32,249.42 154.32,249.42
             154.32,249.42 128.52,214.73 128.52,214.73
             128.52,214.73 240.85,214.78 240.85,214.78
             240.85,214.78 271.16,255.54 271.16,255.54
             271.16,255.54 210.51,255.54 210.51,255.54
             210.51,255.54 134.97,357.03 134.97,357.03 Z" />
</svg>
