<?xml version="1.0" standalone="no"?>
<!DOCTYPE svg PUBLIC "-//W3C//DTD SVG 20010904//EN"
 "http://www.w3.org/TR/2001/REC-SVG-20010904/DTD/svg10.dtd">
<svg version="1.0" xmlns="http://www.w3.org/2000/svg"
 width="332.000000pt" height="344.000000pt" viewBox="0 0 332.000000 344.000000"
 preserveAspectRatio="xMidYMid meet">
<metadata>
Created by potrace 1.16, written by Peter Selinger 2001-2019
</metadata>
<g transform="translate(0.000000,344.000000) scale(0.100000,-0.100000)"
fill="#FFFFFF" stroke="none">
<path d="M650 3292 c-99 -14 -173 -60 -224 -135 -59 -90 -65 -211 -16 -307 21
-42 84 -106 123 -126 l27 -15 0 -869 0 -869 -33 14 c-17 7 -61 27 -97 44 -36
17 -77 31 -92 31 -39 0 -72 -35 -65 -69 6 -27 333 -589 363 -622 21 -24 56
-24 82 -1 32 28 365 600 365 628 0 32 -30 64 -60 64 -13 0 -68 -20 -122 -45
-54 -25 -101 -45 -105 -45 -8 0 -8 389 1 1148 l6 601 28 12 c33 13 99 82 126
130 14 26 18 56 18 124 0 78 -4 97 -27 140 -59 113 -187 184 -298 167z"/>
<path d="M1568 3218 c-2 -2 -5 -508 -8 -1125 l-5 -1122 -94 44 c-103 50 -141
55 -171 25 -24 -24 -25 -41 -4 -83 41 -79 329 -564 347 -584 24 -27 57 -29 85
-6 11 10 99 153 196 317 182 310 185 317 148 359 -23 26 -51 21 -159 -28 l-98
-44 -3 1124 -2 1125 -115 0 c-63 0 -116 -1 -117 -2z"/>
<path d="M2558 2096 l-3 -1124 -95 44 c-52 24 -107 44 -122 44 -39 0 -72 -35
-65 -69 6 -29 328 -583 360 -618 25 -27 58 -29 85 -6 32 29 365 601 365 629 0
32 -30 64 -59 64 -13 0 -62 -18 -109 -39 -46 -22 -93 -42 -102 -45 -17 -6 -18
47 -15 1119 l4 1125 -121 0 -121 0 -2 -1124z"/>
</g>
</svg>
