<?xml version="1.0" standalone="no"?>
<!DOCTYPE svg PUBLIC "-//W3C//DTD SVG 20010904//EN"
 "http://www.w3.org/TR/2001/REC-SVG-20010904/DTD/svg10.dtd">
<svg version="1.0" xmlns="http://www.w3.org/2000/svg"
 width="344.000000pt" height="332.000000pt" viewBox="0 0 344.000000 332.000000"
 preserveAspectRatio="xMidYMid meet">
<metadata>
Created by potrace 1.16, written by Peter Selinger 2001-2019
</metadata>
<g transform="translate(0.000000,332.000000) scale(0.100000,-0.100000)"
fill="#FFFFFF" stroke="none">
<path d="M973 3079 c-42 -15 -588 -342 -605 -361 -24 -27 -22 -60 5 -85 35
-32 589 -354 618 -360 34 -7 69 26 69 65 0 15 -20 70 -44 122 l-44 95 1124 3
1124 2 0 121 0 121 -1125 -4 c-1072 -3 -1125 -2 -1119 15 3 9 23 56 45 102 21
47 39 96 39 109 0 39 -48 70 -87 55z"/>
<path d="M684 1914 c-164 -97 -307 -185 -316 -196 -24 -28 -22 -61 4 -85 21
-18 506 -306 585 -347 42 -21 59 -20 83 4 30 30 25 68 -25 171 l-44 94 1122 5
c617 3 1123 6 1125 8 1 1 2 54 2 117 l0 115 -1125 2 -1124 3 44 98 c49 108 54
136 28 159 -42 37 -49 34 -359 -148z"/>
<path d="M973 1079 c-42 -15 -588 -341 -605 -361 -23 -26 -23 -61 1 -82 33
-30 595 -357 622 -363 34 -7 69 26 69 65 0 15 -14 56 -31 92 -17 36 -37 80
-44 98 l-14 32 869 0 869 0 15 -27 c20 -39 84 -102 126 -123 134 -69 308 -25
390 98 103 156 52 352 -115 440 -43 23 -62 27 -140 27 -68 0 -98 -4 -124 -18
-48 -27 -117 -93 -130 -126 l-12 -28 -601 -6 c-759 -9 -1148 -9 -1148 -1 0 4
20 51 45 105 25 54 45 109 45 122 0 40 -48 71 -87 56z"/>
</g>
</svg>
