<?xml version="1.0" standalone="no"?>
<!DOCTYPE svg PUBLIC "-//W3C//DTD SVG 20010904//EN"
 "http://www.w3.org/TR/2001/REC-SVG-20010904/DTD/svg10.dtd">
<svg version="1.0" xmlns="http://www.w3.org/2000/svg"
 width="332.000000pt" height="344.000000pt" viewBox="0 0 332.000000 344.000000"
 preserveAspectRatio="xMidYMid meet">
<metadata>
Created by potrace 1.16, written by Peter Selinger 2001-2019
</metadata>
<g transform="translate(0.000000,344.000000) scale(0.100000,-0.100000)"
fill="#FFFFFF" stroke="none">
<path d="M602 3073 c-32 -29 -364 -601 -365 -629 0 -32 30 -64 59 -64 13 0 62
18 109 39 46 22 93 42 102 45 17 6 18 -47 15 -1119 l-4 -1125 121 0 121 0 2
1124 3 1124 95 -44 c52 -24 107 -44 123 -44 38 0 71 35 64 69 -6 29 -328 583
-360 619 -25 26 -58 28 -85 5z"/>
<path d="M1602 3073 c-11 -10 -99 -153 -196 -317 -182 -310 -185 -317 -148
-358 23 -27 51 -22 159 27 l98 44 3 -1124 2 -1125 115 0 c63 0 116 1 117 3 2
1 5 507 8 1124 l5 1122 94 -44 c103 -50 141 -55 171 -25 24 24 25 41 4 83 -41
79 -329 564 -347 585 -24 26 -57 28 -85 5z"/>
<path d="M2602 3073 c-32 -29 -364 -601 -364 -629 -1 -32 29 -64 59 -64 13 0
68 20 122 45 54 25 101 45 105 45 8 0 8 -389 -1 -1148 l-6 -601 -28 -12 c-33
-13 -99 -82 -126 -130 -14 -26 -18 -56 -18 -124 0 -78 4 -97 27 -140 88 -167
284 -218 440 -115 123 82 167 256 98 389 -21 43 -84 107 -122 127 l-28 15 0
869 0 869 33 -14 c17 -7 61 -27 97 -44 36 -17 77 -31 93 -31 38 0 71 35 64 69
-6 27 -333 589 -363 622 -21 24 -56 24 -82 2z"/>
</g>
</svg>
