<svg xmlns:dc="http://purl.org/dc/elements/1.1/" xmlns:cc="http://creativecommons.org/ns#" xmlns:rdf="http://www.w3.org/1999/02/22-rdf-syntax-ns#" xmlns:svg="http://www.w3.org/2000/svg" xmlns="http://www.w3.org/2000/svg" xmlns:xlink="http://www.w3.org/1999/xlink" id="svg132886" viewBox="0 0 1024 768" height="768px" width="1024px" version="1.1">
  <metadata id="metadata132892">
    <rdf:rdf>
      <cc:work rdf:about="">
        <dc:format>image/svg+xml</dc:format>
        <dc:type rdf:resource="http://purl.org/dc/dcmitype/StillImage"></dc:type>
      </cc:work>
    </rdf:rdf>
  </metadata>
  <defs id="defs132890"></defs>
  <g id="logo-group">
    <g id="title" style="font-style:normal;font-weight:300;font-size:72px;line-height:1;font-family:'Montserrat Light Alt1';font-variant-ligatures:none;text-align:center;text-anchor:middle">
      <path id="path132894" style="font-style: normal; font-weight: 300; font-size: 72px; line-height: 1; font-family: &quot;Montserrat Light Alt1&quot;; font-variant-ligatures: none; text-align: center; text-anchor: middle; fill: rgb(255, 255, 255);" d="m 327.89713,-21.744 c -1.87201,-2.16 -4.608,-3.528 -8.20801,-4.248 2.52001,-0.792 4.608,-2.232 6.12,-4.248 1.512,-1.944 2.30401,-4.32 2.30401,-7.272 0,-4.104 -1.584,-7.272 -4.608,-9.504 -3.024,-2.232 -7.27201,-3.384 -12.74401,-3.384 h -21.024 v 3.168 h 20.88 c 4.392,0 7.776,0.864 10.15201,2.592 2.37599,1.728 3.59999,4.176 3.59999,7.416 0,3.312 -1.224,5.832 -3.59999,7.56 -2.37601,1.728 -5.76001,2.52 -10.15201,2.52 h -20.88 v 3.168 h 22.464 c 4.824,0 8.56801,0.864 11.08801,2.52 2.51999,1.728 3.81599,4.32 3.81599,7.848 0,3.6 -1.296,6.192 -3.81599,7.92 -2.52,1.728 -6.19201,2.52 -11.08801,2.52 h -22.464 V 0 h 22.464 c 6.12,0 10.728,-1.152 13.896,-3.456 3.096,-2.304 4.68,-5.544 4.68,-9.864 0,-3.384 -1.00799,-6.192 -2.87999,-8.424 z" transform="translate(0 311.24) translate(250.70145555555553 44.76) scale(1.1111111111111112) translate(-289.73712 50.4)"></path>
      <path id="path132896" style="font-style: normal; font-weight: 300; font-size: 72px; line-height: 1; font-family: &quot;Montserrat Light Alt1&quot;; font-variant-ligatures: none; text-align: center; text-anchor: middle; fill: rgb(255, 255, 255);" d="M 343.87775,-50.4 V 0 h 32.688 v -3.312 h -29.016 V -50.4 Z" transform="translate(0 311.24) translate(314.1910444444444 44.76) scale(1.1111111111111112) translate(-343.87775 50.4)"></path>
      <path id="path132898" style="font-style: normal; font-weight: 300; font-size: 72px; line-height: 1; font-family: &quot;Montserrat Light Alt1&quot;; font-variant-ligatures: none; text-align: center; text-anchor: middle; fill: rgb(255, 255, 255);" d="m 404.63787,-50.4 h -3.672 L 377.78188,0 h 3.95999 l 21.024,-46.368 21.096,46.368 h 3.96 z" transform="translate(0 311.24) translate(355.1956333333333 44.76) scale(1.1111111111111112) translate(-377.78188 50.4)"></path>
      <path id="path132900" style="font-style: normal; font-weight: 300; font-size: 72px; line-height: 1; font-family: &quot;Montserrat Light Alt1&quot;; font-variant-ligatures: none; text-align: center; text-anchor: middle; fill: rgb(255, 255, 255);" d="m 480.3155,-38.16 c -2.304,-3.816 -5.472,-6.768 -9.504,-9 -4.032,-2.16 -8.712,-3.24 -13.896,-3.24 h -19.944 v 3.312 h 19.656 c 4.608,0 8.712,0.936 12.312,2.808 3.528,1.872 6.264,4.464 8.208,7.704 1.872,3.312 2.88,7.128 2.88,11.376 0,4.32 -1.008,8.064 -2.88,11.376 -1.944,3.312 -4.68,5.904 -8.208,7.776 -3.6,1.872 -7.704,2.736 -12.312,2.736 h -15.984 V -25.2 h -3.672 V 0 h 19.944 c 5.184,0 9.864,-1.08 13.896,-3.24 4.032,-2.16 7.2,-5.112 9.504,-8.928 2.232,-3.816 3.384,-8.136 3.384,-13.032 0,-4.824 -1.152,-9.144 -3.384,-12.96 z" transform="translate(0 311.24) translate(424.2952111111111 44.76) scale(1.1111111111111112) translate(-436.9715 50.4)"></path>
      <path id="path132902" style="font-style: normal; font-weight: 300; font-size: 72px; line-height: 1; font-family: &quot;Montserrat Light Alt1&quot;; font-variant-ligatures: none; text-align: center; text-anchor: middle; fill: rgb(255, 255, 255);" d="m 529.07187,-27.216 h -32.616 v 3.24 h 32.616 z m 0,-23.184 h -32.616 v 3.312 h 32.616 z m -32.616,47.088 V 0 h 32.616 v -3.312 z" transform="translate(0 311.24) translate(493.7222888888889 44.76) scale(1.1111111111111112) translate(-496.45587 50.4)"></path>
      <path id="path132904" style="font-style: normal; font-weight: 300; font-size: 72px; line-height: 1; font-family: &quot;Montserrat Light Alt1&quot;; font-variant-ligatures: none; text-align: center; text-anchor: middle; fill: rgb(255, 255, 255);" d="m 610.91675,0 h 3.6 l -0.072,-50.4 h -3.024 l -22.536,38.952 -22.536,-38.952 h -3.096 V 0 h 3.6 v -42.984 l 21.096,36.288 h 1.8 l 21.096,-36.432 z" transform="translate(0 311.24) translate(571.2743777777778 44.76) scale(1.1111111111111112) translate(-563.25275 50.4)"></path>
      <path id="path132906" style="font-style: normal; font-weight: 300; font-size: 72px; line-height: 1; font-family: &quot;Montserrat Light Alt1&quot;; font-variant-ligatures: none; text-align: center; text-anchor: middle; fill: rgb(255, 255, 255);" d="m 640.01037,-2.952 c 3.96,2.232 8.42401,3.312 13.392,3.312 4.896,0 9.36001,-1.08 13.392,-3.312 3.96,-2.16 7.056,-5.256 9.36,-9.144 2.30401,-3.888 3.456,-8.208 3.456,-13.104 0,-4.824 -1.15199,-9.216 -3.456,-13.104 -2.304,-3.888 -5.4,-6.912 -9.36,-9.144 -4.03199,-2.16 -8.496,-3.312 -13.392,-3.312 -4.96799,0 -9.432,1.152 -13.392,3.384 -4.03199,2.232 -7.12799,5.256 -9.43199,9.144 -2.30401,3.888 -3.384,8.28 -3.384,13.032 0,4.824 1.07999,9.144 3.384,13.032 2.304,3.888 5.4,6.984 9.43199,9.216 z m 24.84,-2.952 c -3.456,1.944 -7.27199,2.88 -11.448,2.88 -4.248,0 -8.06399,-0.936 -11.51999,-2.88 -3.45601,-1.872 -6.12,-4.536 -8.06401,-7.92 -2.016,-3.384 -2.952,-7.2 -2.952,-11.376 0,-4.176 0.936,-7.92 2.952,-11.304 1.94401,-3.384 4.608,-6.048 8.06401,-7.992 3.456,-1.872 7.27199,-2.88 11.51999,-2.88 4.17601,0 7.992,1.008 11.448,2.88 3.384,1.944 6.048,4.608 8.06401,7.992 1.944,3.384 2.95199,7.128 2.95199,11.304 0,4.176 -1.00799,7.992 -2.95199,11.376 -2.01601,3.384 -4.68001,6.048 -8.06401,7.92 z" transform="translate(0 311.24) translate(645.6539666666667 44.36) scale(1.1111111111111112) translate(-627.19438 50.76)"></path>
      <path id="path132908" style="font-style: normal; font-weight: 300; font-size: 72px; line-height: 1; font-family: &quot;Montserrat Light Alt1&quot;; font-variant-ligatures: none; text-align: center; text-anchor: middle; fill: rgb(255, 255, 255);" d="m 735.6905,-38.16 c -2.304,-3.816 -5.472,-6.768 -9.504,-9 -4.032,-2.16 -8.712,-3.24 -13.896,-3.24 h -19.944 v 3.312 h 19.656 c 4.608,0 8.712,0.936 12.312,2.808 3.528,1.872 6.264,4.464 8.208,7.704 1.872,3.312 2.88,7.128 2.88,11.376 0,4.32 -1.008,8.064 -2.88,11.376 -1.944,3.312 -4.68,5.904 -8.208,7.776 -3.6,1.872 -7.704,2.736 -12.312,2.736 h -15.984 V -25.2 h -3.672 V 0 h 19.944 c 5.184,0 9.864,-1.08 13.896,-3.24 4.032,-2.16 7.2,-5.112 9.504,-8.928 2.232,-3.816 3.384,-8.136 3.384,-13.032 0,-4.824 -1.152,-9.144 -3.384,-12.96 z" transform="translate(0 311.24) translate(721.3785444444445 44.76) scale(1.1111111111111112) translate(-692.3465 50.4)"></path>
    </g>
    <g id="tagline" style="font-style:normal;font-weight:400;font-size:32px;line-height:1;font-family:Montserrat;font-variant-ligatures:none;text-align:center;text-anchor:middle"></g>
  </g>
</svg>