<svg viewBox="33.3322 39.3325 265.3356 265.3356" width="265.3356" height="265.3356" xmlnsSvg="http://www.w3.org/2000/svg" xmlns="http://www.w3.org/2000/svg" xmlnsXlink="http://www.w3.org/1999/xlink" version="1.1">
  <path d="M 161.904 26.504 C 158.704 29.404 125.504 86.604 125.504 89.404 C 125.404 92.604 128.404 95.804 131.404 95.804 C 132.704 95.804 138.204 93.804 143.604 91.304 C 149.004 88.804 153.704 86.804 154.104 86.804 C 154.904 86.804 154.904 125.704 154.004 201.604 L 153.404 261.704 L 150.604 262.904 C 147.304 264.204 140.704 271.104 138.004 275.904 C 136.604 278.504 136.204 281.504 136.204 288.304 C 136.204 296.104 136.604 298.004 138.904 302.304 C 147.704 319.004 167.304 324.104 182.904 313.804 C 195.204 305.604 199.604 288.204 192.704 274.904 C 190.604 270.604 184.304 264.204 180.504 262.204 L 177.704 260.704 L 177.704 173.804 L 177.704 86.904 L 181.004 88.304 C 182.704 89.004 187.104 91.004 190.704 92.704 C 194.304 94.404 198.404 95.804 200.004 95.804 C 203.804 95.804 207.104 92.304 206.404 88.904 C 205.804 86.204 173.104 30.004 170.104 26.704 C 168.004 24.304 164.504 24.304 161.904 26.504 Z" fill="#FFFFFF" stroke="none" style="transform-origin: 166px 172px;" transform="matrix(-0.707107007504, 0.707107007504, -0.707107007504, -0.707107007504, 0.000013152975, 0.000014457341)"></path>
</svg>