<?xml version="1.0" standalone="no"?>
<!DOCTYPE svg PUBLIC "-//W3C//DTD SVG 20010904//EN"
 "http://www.w3.org/TR/2001/REC-SVG-20010904/DTD/svg10.dtd">
<svg version="1.0" xmlns="http://www.w3.org/2000/svg"
 width="332.000000pt" height="344.000000pt" viewBox="0 0 332.000000 344.000000"
 preserveAspectRatio="xMidYMid meet">

<g transform="translate(0.000000,344.000000) scale(0.100000,-0.100000)"
fill="#FFFFFF" stroke="none">
<path d="M2589 3290 c-91 -15 -172 -78 -220 -170 -31 -60 -34 -206 -6 -259 27
-48 93 -117 126 -130 l28 -12 6 -601 c9 -759 9 -1148 1 -1148 -4 0 -51 20
-105 45 -54 25 -109 45 -122 45 -30 0 -59 -32 -59 -64 0 -28 332 -600 364
-628 26 -23 61 -23 82 1 30 33 357 595 363 622 7 34 -26 69 -64 69 -16 0 -57
-14 -93 -31 -36 -17 -80 -37 -97 -44 l-33 -14 0 869 0 869 28 15 c38 20 101
84 122 126 113 221 -75 479 -321 440z"/>
<path d="M522 2095 c3 -1072 2 -1125 -15 -1119 -9 3 -56 23 -102 45 -47 21
-96 39 -109 39 -29 0 -59 -32 -59 -64 0 -28 333 -600 365 -628 27 -24 60 -22
85 5 32 35 354 589 360 618 7 34 -26 69 -64 69 -16 0 -71 -20 -123 -44 l-95
-44 -3 1124 -2 1124 -121 0 -121 0 4 -1125z"/>
<path d="M1518 2095 l-3 -1124 -98 44 c-108 49 -136 54 -159 28 -37 -42 -34
-49 148 -359 97 -164 185 -307 196 -316 28 -24 61 -22 85 5 18 20 306 505 347
584 21 42 20 59 -4 83 -30 30 -68 25 -171 -25 l-94 -44 -5 1122 c-3 617 -6
1123 -8 1125 -1 1 -54 2 -117 2 l-115 0 -2 -1125z"/>
</g>
</svg>
