<?xml version="1.0" standalone="no"?>
<!DOCTYPE svg PUBLIC "-//W3C//DTD SVG 20010904//EN"
 "http://www.w3.org/TR/2001/REC-SVG-20010904/DTD/svg10.dtd">
<svg version="1.0" xmlns="http://www.w3.org/2000/svg"
 width="344.000000pt" height="332.000000pt" viewBox="0 0 344.000000 332.000000"
 preserveAspectRatio="xMidYMid meet">

<g transform="translate(0.000000,332.000000) scale(0.100000,-0.100000)"
fill="#FFFFFF" stroke="none">
<path d="M2430 3082 c-28 -9 -50 -35 -50 -58 0 -13 18 -62 39 -109 22 -46 42
-93 45 -102 6 -17 -47 -18 -1119 -15 l-1125 4 0 -121 0 -121 1124 -2 1124 -3
-44 -95 c-24 -52 -44 -107 -44 -122 0 -39 35 -72 69 -65 29 6 583 328 619 360
26 25 28 58 5 85 -18 20 -564 345 -605 361 -13 4 -30 6 -38 3z"/>
<path d="M2430 2083 c-28 -10 -50 -36 -50 -59 0 -12 20 -67 45 -121 l44 -98
-1124 -3 -1125 -2 0 -115 c0 -63 1 -116 3 -117 1 -2 507 -5 1124 -8 l1122 -5
-44 -94 c-50 -103 -55 -141 -25 -171 24 -24 41 -25 83 -4 79 41 564 329 585
347 26 24 28 57 5 85 -17 19 -581 356 -613 366 -8 2 -22 2 -30 -1z"/>
<path d="M2430 1082 c-28 -9 -50 -35 -50 -59 0 -13 20 -68 45 -122 25 -54 45
-101 45 -105 0 -8 -389 -8 -1148 1 l-601 6 -12 28 c-13 33 -82 99 -130 126
-26 14 -56 18 -124 18 -78 0 -97 -4 -140 -27 -167 -88 -218 -284 -115 -440 82
-123 256 -167 389 -98 43 21 107 84 127 123 l15 27 869 0 869 0 -14 -32 c-7
-18 -27 -62 -44 -98 -17 -36 -31 -77 -31 -92 0 -39 35 -72 69 -65 27 6 589
333 622 363 24 21 24 56 2 82 -18 20 -564 345 -606 361 -12 4 -29 6 -37 3z"/>
</g>
</svg>
