<?xml version="1.0" standalone="no"?>
<!DOCTYPE svg PUBLIC "-//W3C//DTD SVG 20010904//EN"
 "http://www.w3.org/TR/2001/REC-SVG-20010904/DTD/svg10.dtd">
<svg version="1.0" xmlns="http://www.w3.org/2000/svg"
 width="344.000000pt" height="332.000000pt" viewBox="0 0 344.000000 332.000000"
 preserveAspectRatio="xMidYMid meet">
<metadata>
Created by potrace 1.16, written by Peter Selinger 2001-2019
</metadata>
<g transform="translate(0.000000,332.000000) scale(0.100000,-0.100000)"
fill="#FFFFFF" stroke="none">
<path d="M2401 3031 c-29 -29 -26 -65 10 -141 17 -36 37 -80 44 -97 l14 -33
-869 0 -869 0 -15 28 c-20 38 -84 101 -126 122 -134 69 -308 25 -390 -98 -103
-156 -52 -352 115 -440 43 -23 62 -27 140 -27 68 0 98 4 124 18 48 27 117 93
130 126 l12 28 601 6 c759 9 1148 9 1148 1 0 -4 -20 -51 -45 -105 -25 -54 -45
-109 -45 -122 0 -30 32 -60 64 -59 28 0 600 332 629 364 22 26 22 61 -2 82
-33 30 -595 357 -622 363 -19 4 -33 -1 -48 -16z"/>
<path d="M2400 2030 c-30 -30 -25 -68 25 -171 l44 -94 -1122 -5 c-617 -3
-1123 -6 -1124 -8 -2 -1 -3 -54 -3 -117 l0 -115 1125 -2 1124 -3 -44 -98 c-49
-108 -54 -136 -27 -159 41 -37 48 -34 358 148 164 97 307 185 317 196 23 28
21 61 -5 85 -21 18 -506 306 -585 347 -42 21 -59 20 -83 -4z"/>
<path d="M2401 1031 c-31 -31 -26 -65 23 -171 l44 -95 -1124 -3 -1124 -2 0
-121 0 -121 1125 4 c1072 3 1125 2 1119 -15 -3 -9 -23 -56 -45 -102 -21 -47
-39 -96 -39 -109 0 -29 32 -59 64 -59 28 1 600 333 629 365 23 27 21 60 -5 85
-36 32 -590 354 -619 360 -19 4 -33 -1 -48 -16z"/>
</g>
</svg>
