<?xml version="1.0" standalone="no"?>
<!DOCTYPE svg PUBLIC "-//W3C//DTD SVG 20010904//EN"
 "http://www.w3.org/TR/2001/REC-SVG-20010904/DTD/svg10.dtd">
<svg version="1.0" xmlns="http://www.w3.org/2000/svg"
 width="332.000000pt" height="344.000000pt" viewBox="0 0 332.000000 344.000000"
 preserveAspectRatio="xMidYMid meet">

<g transform="translate(0.000000,344.000000) scale(0.100000,-0.100000)"
fill="#FFFFFF" stroke="none">
<path d="M636 3071 c-30 -33 -357 -595 -363 -622 -7 -34 26 -69 64 -69 16 0
57 14 93 31 36 17 80 37 98 44 l32 14 0 -869 0 -869 -27 -15 c-39 -20 -102
-84 -123 -126 -69 -134 -25 -308 98 -390 156 -103 352 -52 440 115 23 43 27
62 27 140 0 68 -4 98 -18 124 -27 48 -93 117 -126 130 l-28 12 -6 601 c-9 759
-9 1148 -1 1148 4 0 51 -20 105 -45 54 -25 109 -45 122 -45 30 0 60 32 60 64
0 28 -333 600 -365 629 -26 22 -61 22 -82 -2z"/>
<path d="M1633 3068 c-18 -21 -306 -506 -347 -585 -21 -42 -20 -59 4 -83 30
-30 68 -25 171 25 l94 44 5 -1122 c3 -617 6 -1123 8 -1124 1 -2 54 -3 117 -3
l115 0 2 1125 3 1124 98 -44 c108 -49 136 -54 159 -27 37 41 34 48 -148 358
-97 164 -185 307 -196 317 -28 23 -61 21 -85 -5z"/>
<path d="M2633 3068 c-32 -36 -354 -590 -360 -619 -7 -34 26 -69 65 -69 15 0
70 20 122 44 l95 44 3 -1124 2 -1124 121 0 121 0 -4 1125 c-3 1072 -2 1125 15
1119 9 -3 56 -23 102 -45 47 -21 96 -39 109 -39 29 0 59 32 59 64 0 28 -333
600 -365 629 -27 23 -60 21 -85 -5z"/>
</g>
</svg>
